<svg width="733" height="629" viewBox="0 0 733 629" fill="none" xmlns="http://www.w3.org/2000/svg">
<g clip-path="url(#clip0_1_6876)">
<path d="M573.234 386.005C569.138 379.482 560.863 374.583 553.412 373.207C544.944 371.666 537.604 374.033 530.373 378.189C497.877 396.794 477.065 427.509 453.339 455.334C473.024 462.545 493.451 470.691 511.348 481.755C522.153 468.379 532.903 454.948 545.439 443.114C551.68 437.802 558.306 432.986 565.427 428.885C572.437 424.867 576.479 416.637 578.211 409.041C580.025 401.06 577.468 392.775 573.234 386.005Z" fill="#FFA897"/>
<path d="M464.858 441.353C464.638 441.6 464.391 441.875 464.171 442.123C446.933 461.004 419.908 474.71 394.065 468.682C386.779 466.976 380.126 463.591 374.49 459.022C363.025 475.948 350.516 492.131 337.622 508.012C351.616 518.938 368.359 526.617 386.999 529.727C438.218 538.286 485.45 511.617 518.002 473.994C500.214 463.315 482.646 452.224 464.858 441.353Z" fill="#FFA897"/>
<path d="M632.509 476.718L432.664 448.343L379.136 381.849L562.017 407.61L632.509 476.718Z" fill="#2067F1"/>
<path d="M633.169 477.682L432.664 448.343L502.496 322.263L703 351.602L633.169 477.682Z" fill="#2067F1"/>
<path d="M579.86 394.675C579.585 398.996 575.874 402.271 571.557 401.996C567.241 401.72 563.969 398.005 564.244 393.684C564.519 389.363 568.231 386.088 572.547 386.363C576.863 386.638 580.135 390.354 579.86 394.675Z" fill="#FFF8F3"/>
<path d="M434.341 446.361C444.239 428.196 454.109 410.031 464.006 391.867C464.776 390.435 462.604 389.169 461.834 390.6C451.937 408.765 442.067 426.93 432.169 445.095C431.4 446.498 433.572 447.764 434.341 446.361Z" fill="#FFF8F3"/>
<path d="M404.814 525.323C409.296 525.323 413.749 525.323 418.231 525.323C419.853 525.323 419.853 522.818 418.231 522.818C413.749 522.818 409.296 522.818 404.814 522.818C403.22 522.818 403.22 525.323 404.814 525.323Z" fill="#D2563C"/>
<path d="M369.046 412.426L372.84 395.803C373.747 391.289 379.438 386.197 384.882 387.959C390.216 389.665 391.618 396.05 390.435 401.83L388.896 411.683L390.93 410.775L420.293 392.225C427.193 387.876 434.864 387.546 437.338 391.482L437.695 392.032C440.005 395.693 437.091 401.775 431.18 406.096C437.64 402.628 444.376 402.601 446.658 406.261L447.015 406.812C448.665 409.454 447.62 413.334 444.679 416.94C448.528 416.224 452.019 417.16 453.641 419.747C456.665 424.564 453.201 432.215 445.861 436.866L386.944 474.186L364.785 439.04L369.046 412.426Z" fill="#FFA897"/>
<path d="M389.226 409.454C385.184 412.014 381.17 414.546 377.129 417.105C375.754 417.959 377.019 420.133 378.394 419.28C382.435 416.72 386.449 414.188 390.491 411.628C391.865 410.748 390.601 408.573 389.226 409.454Z" fill="#D2563C"/>
<path d="M435.166 401.831C424.526 408.546 413.914 415.261 403.275 421.977C401.9 422.83 403.165 425.004 404.539 424.151C415.179 417.436 425.791 410.72 436.431 404.005C437.805 403.152 436.541 400.977 435.166 401.831Z" fill="#D2563C"/>
<path d="M444.211 416.087C433.929 422.582 423.674 429.077 413.392 435.573C412.017 436.426 413.282 438.6 414.657 437.747C424.939 431.252 435.194 424.756 445.476 418.261C446.823 417.38 445.586 415.206 444.211 416.087Z" fill="#D2563C"/>
<path d="M389.446 394.509C384.277 395.225 379.109 395.362 373.912 394.977C372.29 394.867 372.318 397.372 373.912 397.482C379.356 397.895 384.717 397.674 390.106 396.931C391.7 396.711 391.04 394.289 389.446 394.509Z" fill="#D2563C"/>
<path d="M188.309 364.4C260.23 347.391 304.026 399.105 352.853 442.288C337.347 455.912 329.319 470.333 314.913 485.058C311.119 481.452 310.074 483.627 306.418 479.856C293.744 466.783 271.832 447.765 257.673 436.288C248.986 429.848 239.858 424.041 230.071 419.499C225.452 417.793 220.723 416.444 215.884 415.509C212.943 415.316 210.001 415.316 207.059 415.536C206.344 415.674 205.63 415.811 204.915 416.004C196.969 417.876 188.337 417.05 181.189 412.867C174.81 409.123 168.762 401.775 167.085 394.399C163.483 378.519 171.566 368.363 188.309 364.4Z" fill="white"/>
<path d="M259.405 383.638L260.093 385.784L316.755 567.57L188.612 604.312V395.28L259.405 383.638Z" fill="white"/>
<path d="M254.237 312.465C257.316 322.208 255.089 330.107 247.419 333.575C239.748 337.015 230.126 335.006 221.548 331.483C212.97 327.933 204.75 322.896 196.007 320.089C175.69 313.511 151.579 318.024 136.211 301.621C133.874 299.117 131.592 295.263 131.949 291.906C132.499 286.842 136.43 287.998 139.4 285.3C141.984 282.933 140.719 277.842 137.833 275.007C134.946 272.172 131.069 270.961 127.385 269.778C112.539 264.934 97.9407 258.328 84.0844 250.072C76.1115 245.338 67.3688 238.485 66.5166 229.457C66.1042 224.944 73.0873 223.953 71.8776 219.467C68.9084 208.348 45.7321 201.632 44.11 190.376C43.3402 185.091 47.1342 180.66 51.8355 179.367C56.5367 178.073 61.8428 179.312 66.819 181.073C79.5756 185.587 103.164 209.696 115.756 214.898C135.468 223.017 122.849 201.55 134.836 198.109C146.163 194.889 158.7 212.834 165.518 221.008C176.57 234.274 188.227 248.668 203.678 256.099C206.482 257.448 209.699 258.549 212.228 257.393C214.262 256.484 215.445 254.31 217.369 253.209C223.5 249.714 231.06 258.273 234.744 265.512C242.497 280.732 249.013 296.447 254.237 312.465Z" fill="#FFAE00"/>
<path d="M209.836 364.483L223.692 338.419C220.916 338.557 218.111 337.346 216.297 334.924C213.438 331.07 214.207 325.621 218.084 322.731C221.933 319.869 227.376 320.64 230.263 324.52C230.428 324.74 230.593 324.988 230.73 325.208L236.724 313.979C237.466 312.575 239.116 311.942 240.6 312.465C247.996 315.025 268.23 324.3 265.289 348.685C265.069 350.529 263.337 351.822 261.522 351.465L252.147 349.703L250.278 376.235C249.563 386.253 242.112 394.647 232.16 396.078C231.693 396.133 231.225 396.216 230.758 396.244C213.685 397.95 201.781 379.62 209.836 364.483Z" fill="#FFA897"/>
<path d="M238.676 330.905C239.831 328.098 243.377 326.832 246.071 328.181C247.144 328.731 248.106 327.107 247.034 326.557C243.185 324.603 238.511 326.447 236.889 330.41C236.394 331.538 238.208 332.034 238.676 330.905Z" fill="#00153B"/>
<path d="M252.01 324.025C256.189 327.273 260.368 330.548 264.574 333.796C264.629 333.3 264.711 332.805 264.766 332.309C263.144 333.438 261.495 334.594 259.873 335.722C258.883 336.41 259.818 338.034 260.835 337.346C262.457 336.218 264.107 335.062 265.729 333.933C266.168 333.63 266.443 332.86 265.921 332.447C261.742 329.199 257.563 325.924 253.357 322.677C252.395 321.961 251.048 323.282 252.01 324.025Z" fill="#00153B"/>
<path d="M249.7 338.584C248.931 341.061 251.652 343.73 254.127 342.795C255.254 342.354 254.759 340.538 253.632 340.978C252.505 341.419 251.157 340.263 251.542 339.079C251.872 337.923 250.058 337.428 249.7 338.584Z" fill="#00153B"/>
<path d="M221.108 329.199C222.785 330.135 224.462 331.098 226.167 332.034C227.211 332.64 228.174 330.988 227.129 330.41C225.452 329.474 223.775 328.511 222.07 327.575C220.998 326.97 220.036 328.594 221.108 329.199Z" fill="#00153B"/>
<path d="M143.194 539.855C119.852 514.919 108.47 479.691 113.804 444.214C116.828 424.151 126.753 406.178 139.29 390.573C152.129 374.555 169.669 363.601 188.694 356.473C195.787 353.831 206.152 355.923 212.42 359.611C218.799 363.354 224.847 370.702 226.524 378.078C228.311 385.977 227.899 394.839 223.39 401.83C218.991 408.628 213.3 412.674 205.877 415.591C189.876 423.242 177.34 437.141 174.453 455.058C171.979 470.388 177.065 485.966 187.182 497.14C173.216 512.112 158.37 526.149 143.194 539.855Z" fill="white"/>
<path d="M278.375 494.306C258.443 510.296 229.631 519.681 204.997 509.718C198.069 506.911 192.021 502.535 187.127 497.168C173.216 512.14 158.342 526.177 143.166 539.883C155.29 552.846 170.659 563.002 188.612 568.947C239.308 585.763 291.544 565.148 329.814 531.351C351.781 511.948 369.843 488.609 392.607 470.059C384.332 450.793 379.768 428.637 371.713 409.289C337.65 431.307 309.964 468.958 278.375 494.306Z" fill="#FFA897"/>
<path d="M258.278 560.029C254.017 560.937 249.755 561.818 245.494 562.726C243.927 563.056 244.587 565.478 246.154 565.148C250.415 564.24 254.677 563.359 258.938 562.451C260.505 562.121 259.845 559.699 258.278 560.029Z" fill="#D2563C"/>
<path d="M224.352 371.363C230.648 387.738 223.197 406.013 206.922 412.756C205.437 413.362 206.097 415.811 207.582 415.178C225.039 407.94 233.617 388.481 226.771 370.702C226.194 369.216 223.747 369.849 224.352 371.363Z" fill="#00153B"/>
<path d="M213.3 323.089C211.266 315.905 198.042 317.061 192.543 317.694C182.068 318.878 172.281 322.841 162.329 326.006C152.569 329.088 142.231 331.4 132.087 328.923C127.413 327.795 122.959 325.676 119.44 322.373C116.498 319.593 113.557 314.887 117.708 311.749C119.577 310.318 122.629 311.171 124.361 312.272C125.681 313.125 126.726 315.52 128.128 315.74C128.43 316.153 128.733 316.538 129.062 316.951C128.678 317.116 128.293 317.309 127.908 317.474C129.31 318.272 130.575 316.098 129.172 315.3C129.062 315.245 128.952 315.162 128.842 315.107C128.485 314.914 127.935 314.859 127.578 315.107C126.836 315.658 126.561 315.96 126.561 316.924C126.561 317.419 126.945 318.052 127.495 318.135C131.344 318.74 130.3 314.887 128.76 312.905C125.873 309.272 120.815 307.043 116.498 309.548C105.666 315.795 120.842 327.437 126.863 329.859C138.905 334.675 151.909 331.978 163.813 328.18C171.016 325.868 178.109 323.144 185.505 321.465C189.326 320.584 193.203 319.979 197.134 319.868C200.406 319.786 209.754 319.346 210.991 323.749C211.321 325.318 213.74 324.657 213.3 323.089Z" fill="#FFAE00"/>
<path d="M254.759 313.18C251.625 299.172 248.023 285.245 243.899 271.484C240.463 259.98 237.466 247.457 231.83 236.778C228.201 229.898 220.806 222.274 212.2 225.439C209.094 226.595 206.564 229.375 206.922 232.843C207.252 236.2 209.781 238.815 213.19 238.732C214.812 238.705 214.812 236.173 213.19 236.228C208.709 236.338 208.764 230.751 211.485 228.687C213.492 227.173 216.324 227.008 218.689 227.641C222.703 228.714 225.727 231.687 227.926 235.072C232.517 242.035 234.689 250.622 237.246 258.466C243.157 276.686 248.188 295.181 252.367 313.869C252.67 315.437 255.116 314.749 254.759 313.18Z" fill="#FFAE00"/>
<path d="M126.726 217.926C114.189 215.063 103.027 207.908 95.1639 197.724C91.2875 192.715 88.1258 186.936 86.3937 180.798C85.294 176.89 84.7717 170.257 89.9953 168.908C92.5246 168.248 95.2464 169.707 96.9235 171.495C97.9407 172.541 98.628 173.752 99.0679 175.156C99.4253 179.009 98.0232 180.413 94.834 179.422C93.4594 178.569 92.1947 180.743 93.5693 181.596C96.3461 183.33 99.9751 182.092 101.295 179.064C102.862 175.459 100.607 171.248 97.8857 168.908C90.2702 162.358 82.0499 169.321 83.2871 178.156C84.6892 188.312 91.4249 198.247 98.6005 205.265C106.216 212.724 115.728 217.926 126.121 220.293C127.633 220.706 128.293 218.284 126.726 217.926Z" fill="#FFAE00"/>
<path d="M188.612 604.313V629H333.003L316.755 567.57L188.612 604.313Z" fill="#FFA897"/>
<path d="M283.214 456.545C279.475 443.444 275.736 430.343 271.997 417.215C271.557 415.674 269.138 416.334 269.578 417.876C273.317 430.976 277.056 444.077 280.795 457.205C281.235 458.774 283.654 458.113 283.214 456.545Z" fill="#00153B"/>
<path d="M560.509 56.7276L519.788 49.9657C513.25 48.8801 507.07 53.3 505.984 59.8379L494.966 126.192C493.88 132.73 498.3 138.91 504.838 139.996L545.559 146.758C552.097 147.843 558.277 143.423 559.363 136.886L570.381 70.5312C571.467 63.9934 567.047 57.8133 560.509 56.7276Z" fill="#FFCD00"/>
<path d="M514.762 66.2749C528.028 68.4777 541.257 70.6746 554.523 72.8774C556.418 73.1921 556.904 70.2625 555.009 69.9478C541.744 67.745 528.514 65.5482 515.248 63.3454C513.353 63.0307 512.867 65.9603 514.762 66.2749Z" fill="#000D39"/>
<path d="M512.597 79.3159C525.862 81.5187 539.092 83.7156 552.358 85.9184C554.253 86.2331 554.739 83.3035 552.844 82.9888C539.578 80.7861 526.349 78.5892 513.083 76.3864C511.188 76.0717 510.702 79.0013 512.597 79.3159Z" fill="#000D39"/>
<path d="M510.657 90.9976C523.922 93.2004 537.152 95.3972 550.418 97.6C552.313 97.9147 552.799 94.9852 550.904 94.6705C537.639 92.4677 524.409 90.2708 511.143 88.068C509.248 87.7534 508.762 90.6829 510.657 90.9976Z" fill="#000D39"/>
<path d="M477.773 242.032L449.15 254.698C443.089 257.38 440.35 264.467 443.032 270.527L455.698 299.15C458.38 305.211 465.467 307.95 471.527 305.268L500.15 292.602C506.211 289.921 508.95 282.833 506.268 276.773L493.602 248.15C490.92 242.089 483.833 239.35 477.773 242.032Z" fill="#8363E2"/>
<path d="M453.796 269.045C463.616 264.7 473.343 260.396 483.163 256.05C484.923 255.272 483.709 252.528 481.949 253.307C472.129 257.652 462.402 261.956 452.582 266.302C450.822 267.08 452.036 269.824 453.796 269.045Z" fill="white"/>
<path d="M456.596 275.461C461.834 273.143 467.073 270.825 472.311 268.507C474.027 267.748 472.813 265.004 471.097 265.764C465.859 268.082 460.62 270.4 455.382 272.718C453.666 273.477 454.88 276.22 456.596 275.461Z" fill="white"/>
<path d="M484.75 282.481L484.75 282.48L489.447 270.329C489.447 270.329 489.447 270.329 489.447 270.329C489.502 270.186 489.585 270.055 489.691 269.944L490.053 270.288L489.691 269.944C489.797 269.832 489.923 269.743 490.064 269.681C490.204 269.619 490.356 269.585 490.509 269.581C490.662 269.578 490.815 269.605 490.957 269.66L484.75 282.481ZM484.75 282.481C484.742 282.502 484.73 282.521 484.715 282.536L485.077 282.881L484.715 282.536C484.7 282.552 484.682 282.565 484.662 282.574C484.642 282.583 484.62 282.588 484.598 282.588L484.61 283.088L484.598 282.588C484.576 282.589 484.554 282.585 484.534 282.577L484.533 282.577L479.833 280.758C479.833 280.758 479.833 280.758 479.833 280.757C479.69 280.702 479.537 280.675 479.384 280.679L479.395 281.179L479.384 280.679C479.23 280.682 479.079 280.716 478.938 280.778C478.798 280.84 478.671 280.93 478.565 281.041L478.927 281.385L478.565 281.041C478.459 281.152 478.377 281.283 478.322 281.426C478.266 281.569 478.239 281.721 478.243 281.874C478.246 282.028 478.28 282.179 478.342 282.32C478.405 282.46 478.494 282.587 478.605 282.693C478.716 282.798 478.847 282.881 478.99 282.936C478.991 282.936 478.991 282.936 478.991 282.936L483.691 284.753L483.691 284.753C484.311 284.991 484.999 284.975 485.606 284.706C486.213 284.437 486.689 283.939 486.929 283.32L486.929 283.32L491.626 271.171C491.626 271.17 491.626 271.17 491.626 271.17M484.75 282.481L491.626 271.17M491.626 271.17L491.626 271.17L491.16 270.99L491.626 271.17Z" fill="white" stroke="white"/>
<path d="M574.332 231.556C574.534 247.033 574.706 262.561 574.907 278.038C574.958 283.611 583.658 283.558 583.558 277.956C583.356 262.479 583.184 246.952 582.983 231.474C582.932 225.902 574.282 225.983 574.332 231.556Z" fill="#00A86B"/>
<path d="M609.175 264.429C606.642 270.78 604.137 277.082 601.554 283.404C600.697 285.581 602.533 288.177 604.623 288.716C607.121 289.357 609.078 287.815 609.935 285.638C612.468 279.287 614.973 272.985 617.556 266.663C618.413 264.486 616.577 261.89 614.487 261.351C611.989 260.71 610.032 262.252 609.175 264.429Z" fill="#00A86B"/>
<path d="M283.867 184.741C280.444 196.46 287.421 210.484 300.07 211.899C306.102 212.557 312.557 209.957 316.404 205.249C320.088 200.739 321.424 193.728 318.099 188.592C316.241 185.728 312.915 183.984 309.492 184.774C305.971 185.597 303.559 188.823 302.874 192.279C302.646 193.464 303.07 194.386 304.015 195.077C304.635 195.538 305.221 195.703 305.971 195.637C309.101 195.407 309.134 190.469 306.004 190.699C306.134 190.732 306.297 190.765 306.428 190.798C306.819 191.72 307.177 192.674 307.569 193.596C307.927 191.851 308.873 189.745 310.894 189.547C312.72 189.35 313.991 190.864 314.545 192.444C316.045 196.526 314.317 200.805 311.22 203.571C308.156 206.303 303.754 207.587 299.744 206.928C295.506 206.237 292.116 203.505 290.094 199.752C287.845 195.604 287.258 190.6 288.562 186.058C289.475 182.996 284.78 181.679 283.867 184.741Z" fill="#2568EE"/>
<path d="M337.226 284.526C340.581 283.314 344.052 283.371 347.291 285.046C350.877 286.837 352.438 289.782 353.827 293.363C355.388 297.407 357.181 301.276 360.941 303.76C364.527 306.07 368.981 306.706 373.203 306.59C377.946 306.475 383.093 305.146 387.605 307.11C391.48 308.785 393.562 311.904 395.298 315.543C397.206 319.586 399.52 323.225 403.569 325.477C407.56 327.672 412.187 328.192 416.583 327.094C422.02 325.766 419.764 317.391 414.327 318.719C404.379 321.203 402.99 308.669 397.553 303.471C394.546 300.641 390.67 298.562 386.564 297.811C381.474 296.887 376.5 298.042 371.468 297.926C367.303 297.811 364.411 296.367 362.734 292.497C361.056 288.743 359.958 284.989 357.181 281.812C351.744 275.747 342.548 273.379 334.971 276.151C329.765 278 331.963 286.432 337.226 284.526Z" fill="#FFAE00"/>
<g clip-path="url(#clip1_1_6876)">
<path d="M193.5 125.2C187 120.9 181.1 115.9 175.9 110.1C172.9 106.8 167.9 111.7 171 115C176.6 121.3 183 126.6 190 131.2C193.8 133.7 197.3 127.6 193.5 125.2Z" fill="white"/>
<path d="M259.9 143.1C250.9 142.7 241.9 141.9 233 140.6C228.6 139.9 226.7 146.7 231.1 147.4C240.6 148.8 250.2 149.8 259.8 150.2C264.4 150.3 264.4 143.3 259.9 143.1Z" fill="white"/>
<path d="M329.8 135.5C319.7 137.6 309.7 139.6 299.5 141.3C295.1 142 296.9 148.8 301.4 148.1C311.5 146.4 321.6 144.4 331.7 142.3C336.1 141.3 334.2 134.6 329.8 135.5Z" fill="white"/>
<path d="M404.1 123.6C393 124.2 381.9 125.6 370.9 127.4C366.5 128.1 368.3 134.9 372.8 134.1C383.2 132.4 393.6 131.1 404.1 130.6C408.6 130.4 408.6 123.4 404.1 123.6Z" fill="white"/>
<path d="M474 135.3C464.8 131.2 455.3 128.2 445.4 126.2C441 125.3 439.1 132.1 443.5 133C452.8 134.9 461.8 137.6 470.4 141.4C474.5 143.2 478.1 137.1 474 135.3Z" fill="white"/>
<path d="M524.2 180.5C520.3 174.1 515.9 168 510.9 162.4C507.9 159 502.9 164 506 167.3C510.6 172.4 514.7 178 518.2 183.9C520.5 187.9 526.5 184.4 524.2 180.5Z" fill="white"/>
<path d="M539.5 245.7C539.9 238 539.7 230.3 538.7 222.7C538.1 218.3 531.1 218.2 531.7 222.7C532.7 230.4 533 238 532.5 245.7C532.2 250.2 539.2 250.1 539.5 245.7Z" fill="white"/>
</g>
<path d="M393.324 104.45L371.965 111.556C365.676 113.648 362.274 120.442 364.366 126.73L371.472 148.09C373.564 154.378 380.358 157.78 386.647 155.688L408.006 148.582C414.295 146.49 417.697 139.696 415.604 133.407L408.499 112.048C406.406 105.759 399.613 102.358 393.324 104.45Z" fill="#1478C8"/>
<path d="M384.756 112.086C390.502 110.174 387.582 101.13 381.836 103.041C376.037 105.059 379.01 113.997 384.756 112.086Z" fill="white"/>
<path d="M190.679 90.1285L159.582 93.6916C152.998 94.446 148.272 100.395 149.026 106.98L152.589 138.076C153.344 144.66 159.293 149.387 165.877 148.632L196.974 145.069C203.558 144.315 208.284 138.365 207.53 131.781L203.967 100.684C203.212 94.1001 197.263 89.374 190.679 90.1285Z" fill="#00BB99"/>
<path d="M176.601 97.2773C183.754 96.4577 182.567 85.2197 175.414 86.0394C168.162 86.8704 169.448 98.0969 176.601 97.2773Z" fill="white"/>
</g>
<defs>
<clipPath id="clip0_1_6876">
<rect width="733" height="629" fill="white"/>
</clipPath>
<clipPath id="clip1_1_6876">
<rect width="369.7" height="140" fill="white" transform="translate(170 109)"/>
</clipPath>
</defs>
</svg>
